<?xml version="1.0" encoding="UTF-8" standalone="no"?>
<svg
   width="144"
   height="40.5"
   version="1.1"
   viewBox="0 0 38.1 10.716"
   id="svg930"
   xmlns="http://www.w3.org/2000/svg"
   xmlns:svg="http://www.w3.org/2000/svg"><defs
   id="defs881">
  <mask
     id="loadingBarMask">
    <path
       id="loadingBar"
       style="color:#000000;fill:#fff;-inkscape-stroke:none"
       d="M 16.535156,4.828125 V 5.8867187 H 26.855469 V 4.828125 Z" />
    <rect
       id="loadingStatus"
       x="15.478"
       y="4.8286"
       width="1.0583"
       height="1.0583"
       fill="#000"
       stroke-linecap="round"
       stroke-width=".84666"
       style="paint-order:markers stroke fill">
      <animateTransform
         id="loadingStatusAnumation"
         attributeName="transform"
         type="translate"
         from="0 0"
         to="11.4 0"
         dur="2.2s"
         repeatCount="indefinite"
         values="0;11.4;11.4;0;0;"
         keyTimes="0; 0.35; 0.5; 0.85;1" />
    </rect>
  </mask>
</defs>
<g
   transform="translate(0 -25.863)"
   stroke-width=".66146"
   id="g923">
  <path
     d="m0.99994 28.31a1 1 0 0 0-0.99994 0.99994v4.6147a1 1 0 0 0 0.99994 0.99994h8.5835a1 1 0 0 0 0.99994-0.99994v-4.6147a1 1 0 0 0-0.99994-0.99994zm-0.33848 0.66146h9.2604v5.2917h-9.2604z"
     style="paint-order:markers stroke fill"
     id="path905" />
  <g
     fill="none"
     stroke="#000"
     id="g919">
    <path
       d="m11.642 27.194v8.0542a1 1 45 0 0 1 1h1.9687a1 1 135 0 0 1-1v-8.0542a1 1 45 0 0-1-1h-1.9687a1 1 135 0 0-1 1z"
       id="path907" />
    <path
       d="m5.2917 34.925v1.3229"
       id="path909" />
    <g
       stroke-linecap="round"
       id="g917">
      <path
         d="m3.9688 36.248h2.6458"
         id="path911" />
      <path
         d="m12.965 27.517h1.3229"
         id="path913" />
      <path
         d="m12.965 28.84h1.3229"
         id="path915" />
    </g>
  </g>
  <circle
     cx="13.626"
     cy="33.867"
     r=".33073"
     stroke-linecap="round"
     style="paint-order:markers stroke fill"
     id="circle921" />
</g>


/* #009fe3 */

<path
   id="path925"
   style="color:#000000;fill:#009fe3;-inkscape-stroke:none;fill-opacity:1"
   d="M 16.535156,4.828125 V 5.8867187 H 26.855469 V 4.828125 Z" />
<g
   id="maskedLoadingBar"
   mask="url(#loadingBarMask)"
   background-color="yellow"
   style="stroke-width:0.99989541;stroke-miterlimit:4;stroke-dasharray:none;fill:none;fill-opacity:1">
  <path
     id="path927"
     style="color:#000000;fill:none;stroke-width:0.99989541;stroke-miterlimit:4;stroke-dasharray:none;fill-opacity:1"
     d="M 16.535156,4.828125 V 5.8867187 H 26.855469 V 4.828125 Z" />
</g>
<ellipse
   style="fill:none;stroke:#000000;stroke-width:0.661481;stroke-linecap:round;stroke-miterlimit:4;stroke-dasharray:none;stroke-opacity:1;paint-order:markers stroke fill"
   id="path1336"
   ry="1.322963"
   rx="4.6303701"
   cy="2.1828887"
   cx="32.411926" />
<path
   id="path1336-4-8"
   style="fill:none;stroke:#000000;stroke-width:0.661481;stroke-linecap:round;paint-order:markers stroke fill"
   d="m 37.042295,4.2996288 c 0,0.730652 -2.073087,1.3229635 -4.63037,1.3229635 -1.278641,0 -2.436234,-0.1480779 -3.274166,-0.3874872" />
<path
   id="path1336-4-8-2"
   style="fill:none;stroke:#000000;stroke-width:0.661481;stroke-linecap:round;paint-order:markers stroke fill"
   d="m 37.042295,6.4163696 c 0,0.730652 -2.073087,1.3229635 -4.63037,1.3229635 -1.278641,0 -2.436234,-0.1480779 -3.274166,-0.3874873" />
<path
   id="path1336-4-8-4"
   style="fill:none;stroke:#000000;stroke-width:0.661481;stroke-linecap:round;paint-order:markers stroke fill"
   d="m 27.781556,2.1828882 -10e-7,6.350222 c 0,0.730652 2.073087,1.3229637 4.63037,1.3229637 2.557283,0 4.63037,-0.5923117 4.63037,-1.3229637 l 10e-7,-6.350222" />
<circle
   cx="35.587185"
   cy="4.2334695"
   r="0.33072999"
   stroke-linecap="round"
   style="paint-order:markers stroke fill"
   id="circle921-9" />
<circle
   cx="35.587185"
   cy="6.3502107"
   r="0.33072999"
   stroke-linecap="round"
   style="paint-order:markers stroke fill"
   id="circle921-9-1" />
<circle
   cx="35.587185"
   cy="8.4669523"
   r="0.33072999"
   stroke-linecap="round"
   style="paint-order:markers stroke fill"
   id="circle921-9-5" />
</svg>
